<?xml version="1.0" encoding="UTF-8"?>
<svg id="Layer_1" data-name="Layer 1" xmlns="http://www.w3.org/2000/svg" xmlns:xlink="http://www.w3.org/1999/xlink" viewBox="0 0 230 139.16">
  <defs>
    <style>
      .cls-1 {
        clip-path: url(#clippath);
      }

      .cls-2 {
        fill: none;
      }

      .cls-2, .cls-3, .cls-4, .cls-5, .cls-6, .cls-7, .cls-8, .cls-9, .cls-10, .cls-11 {
        stroke-width: 0px;
      }

      .cls-3 {
        opacity: .8;
      }

      .cls-3, .cls-4, .cls-7, .cls-10 {
        fill: #fdce83;
      }

      .cls-12 {
        clip-path: url(#clippath-1);
      }

      .cls-13 {
        clip-path: url(#clippath-2);
      }

      .cls-4 {
        opacity: .45;
      }

      .cls-5 {
        fill: #fab53b;
        opacity: .5;
      }

      .cls-14 {
        opacity: .78;
      }

      .cls-6 {
        fill: #fcc771;
        opacity: .56;
      }

      .cls-7 {
        opacity: .3;
      }

      .cls-8 {
        fill: #d85627;
      }

      .cls-9 {
        fill: #d75527;
      }

      .cls-11 {
        fill: #f5f5f5;
      }
    </style>
    <clipPath id="clippath">
      <path class="cls-2" d="m103.09,46.79c2.35-10.34-9.95-10.24-14.14-20.8C82.57,9.89,100.53,1.38,111.63.11c2.92-.33,4.1.08,1.14,1.75-3.96,2.22-20.74,13.58,6.66,26.07.88.4.73-.12.49-.3-3.25-2.5-9.76-11.75,1.22-16.61,2.46-1.09,2.58-.31.84,2.11-3.03,4.23-1.04,10.06,12.76,15.1,14.62,5.34,20.43,17.33,16.96,25.04-4.34,9.65-13.81,9.69-15.87,18.63-1.57,6.8,5.19,11.67,6.33,12.25.85.43.91.48.85-.14s-5.32-15.22,14.77-18.54c2.08-.35-.52.98-2.37,2.36-7.92,5.89-.59,13.76,1.84,16.32,7.52,7.94,18.97,12.21,18.51,24.88-.38,10.33-12.85,32.12-54,30-5.26-.27-14.84-1.87-14.45-2.76.29-.67,5.51.27,14.39-1.45,17.92-3.46,49.36-24.81,12.02-42.41-4.49-2.12-26.3-13.24-6.98-29.84,1.76-1.51-.49-1.64-4.3.22s-13.83,7.31-13.31,18.44c.33,7.05,5.3,9.27,12.85,14.02,7.55,4.75,15.88,11.67,14.26,19.64-1.62,7.96-5.44,6.33-5.93,5.29s-1.55-7.58-10.55-10.75c-12.09-4.25-18.34-.22-29.46-1.85-8.73-1.28-19.4-4.8-18.1-20.62.03-.41-.5-.53-.76-.26-2.73,2.85-4.8,6.59-5.7,10.79-1.71,8.06,3.8,21.07,36.9,19.33,9.26-.49,10.89,2.91,10.87,4.8-.02,1.88-5.11,14.77-39.69,7.35-34.58-7.42-32.57-31.74-17.26-45.13,7.2-6.29,10.74-9.51,13.42-15.93,1.75-4.18,2.62-11.98-3.14-17.59-1.84-1.8-2.7-2.62,1.75-1.04,2.89,1.03,16.23,7.52,15.34,15.87-.08.76,2.39.03,2.76-.55s12.64-8.37,6.45-19.36c-1.83-3.25-4.14-4.76,2.27-1.88,4.38,1.96,6.49,3.86,6.96,4.6.54.87.74-1.14.74-1.14Z"/>
    </clipPath>
    <clipPath id="clippath-1">
      <path class="cls-2" d="m88.26,40.44c9.24.57,18.2,10.02,21.15,18.97.44,1.33.84,2.53,1.16,3.66.06.2.55.52,2.07-.58,16.74-12.11,14.62-21.98,10.64-25.53-1.42-1.27-3.77-3.49-10-5.89-5.38-2.07-9.57-2.69-.57-1.36,7.6,1.13,13.8,2.95,19.47,7.29,28.03,21.44-23.51,30.47,11.72,52.29.49.3.86-.27.61-.86-1.95-4.53-4.93-11.88-.57-23.54.3-.8,26.99-1.91,25.37-1.63-42.98,7.52-17.62,28.16-9.38,39.55,9.3,12.86,10.06,37.86-41.41,37.77-7.85-.01-23.62-2.84-22.87-3.1,38.23-13.47,35.72-15.04,31.5-24.42-5.37-11.94-28.23-13.99-33.62-20.69-5.39-6.7-1.32-14.66,2.56-22.8,6.74-14.13-4.85-26.01-4.85-26.01l-2.96-3.12Z"/>
    </clipPath>
    <clipPath id="clippath-2">
      <path class="cls-2" d="m138.58,24.71c-9.24.57-18.2,10.02-21.15,18.97-.44,1.33-.84,2.53-1.16,3.66-.06.2-.55.52-2.07-.58-16.74-12.11-14.62-21.98-10.64-25.53,1.42-1.27,3.77-3.49,10-5.89,5.38-2.07,9.57-2.69.57-1.36-7.6,1.13-13.8,2.95-19.47,7.29-28.03,21.44,23.51,30.47-11.72,52.29-.49.3-.86-.27-.61-.86,1.95-4.53,4.93-11.88.57-23.54-.3-.8-26.99-1.91-25.37-1.63,42.98,7.52,19.33,29.74,9.38,39.55-12.53,12.36-12.98,41.74,36.26,39.17,13.65-.71,25.54-13.56,24.79-13.82-38.23-13.47-32.48-5.73-28.26-15.11,5.37-11.94,28.23-13.99,33.62-20.69,5.39-6.7,1.32-14.66-2.56-22.8-6.74-14.13,4.85-26.01,4.85-26.01l2.96-3.12Z"/>
    </clipPath>
  </defs>
  <g>
    <g class="cls-1">
      <rect class="cls-9" x="19.45" y="-4.39" width="171.29" height="162.37"/>
      <path class="cls-5" d="m88.26,40.44c9.24.57,18.2,10.02,21.15,18.97.44,1.33.84,2.53,1.16,3.66.06.2.55.52,2.07-.58,16.74-12.11,14.62-21.98,10.64-25.53-1.42-1.27-3.77-3.49-10-5.89-5.38-2.07-9.57-2.69-.57-1.36,7.6,1.13,13.8,2.95,19.47,7.29,28.03,21.44-23.51,30.47,11.72,52.29.49.3.86-.27.61-.86-1.95-4.53-4.93-11.88-.57-23.54.3-.8,27.19-5.51,25.67-5.03-40.2,12.8-13.34,32.66-8.79,44.96s-1.04,18.23-4.55,21.93c-3.54,3.74-13.84,12.03-38.2,12.4-7.85.12-23.18-1.41-22.43-1.67,38.23-13.47,35.72-15.04,31.5-24.42-5.37-11.94-28.23-13.99-33.62-20.69-5.39-6.7-1.32-14.66,2.56-22.8,6.74-14.13-4.85-26.01-4.85-26.01l-2.96-3.12Z"/>
      <g class="cls-12">
        <path class="cls-6" d="m103.22,133.62c.61,0,31.33-4.07,31.33-4.07l16.61-18.13s2.49-5.85-5.19-20.04c-2.74-5.05-6.97-18.13-6.97-18.13l17.79-11.15s11.92.89,11.52,2.12-9.9,19.83-10.11,21.19,5.25,16.98,6.27,19.15,4.45,20.64.61,25.67-22.03,18.2-33.35,19.56c-11.32,1.36-31.93.81-34.16-1.36s5.66-14.8,5.66-14.8Z"/>
      </g>
      <g class="cls-13">
        <path class="cls-6" d="m123.62,117.88c-.61,0-31.33-4.07-31.33-4.07l-16.61-18.13s-2.49-5.85,5.19-20.04c2.74-5.05,6.97-18.13,6.97-18.13l-17.79-11.15s-11.92.89-11.52,2.12,9.9,19.83,10.11,21.19-5.25,16.98-6.27,19.15-4.45,20.64-.61,25.67c3.84,5.03,22.03,18.2,33.35,19.56s31.93.81,34.16-1.36-5.66-14.8-5.66-14.8Z"/>
      </g>
      <path class="cls-3" d="m63.93,45.51c29.11.23,18.94,27.67,16.99,33.96-7.06,22.74,12.06,25.62,26.41,30.47,1.46.49,6.7,3.35,8.32,4.26s6.87,2.17,6.87,2.17c0,0-15.73-2.04-17.89-1.77s-16.98,1.43-16.84.68c1.35-7.47-8.55,1.64-18.2-5.65-14.33-10.82-6.6-22.83,3.44-35.27,11.78-14.59-8.3-26.42-8.3-26.42l-.81-2.44Z"/>
      <path class="cls-7" d="m61.42,45.97c29.11.23,18.94,27.67,16.99,33.96-7.06,22.74,12.06,25.62,26.41,30.47,1.46.49,6.7,3.35,8.32,4.26s6.87,2.17,6.87,2.17c0,0-15.73-2.04-17.89-1.77s-16.98,1.43-16.84.68c1.35-7.47-8.55,1.64-18.2-5.65-14.33-10.82-6.6-22.83,3.44-35.27,11.78-14.59-8.3-26.42-8.3-26.42l-.81-2.44Z"/>
      <path class="cls-4" d="m123.31,8.4s-15.73,9.67,4.95,20.83c31.23,16.84,19.4,32.69,18.46,33.32s18.59-15.12,18.32-15.66-9.84-17.24-10.38-17.31-18.46-7.95-20.08-8.85-6.87-13.22-6.87-13.22l-4.41.91Z"/>
      <path class="cls-5" d="m122.36,8.05s-14.82,10.3,6.83,20.58c32.7,15.53,22.33,31.83,21.45,32.5s17.19-15.86,16.87-16.39-11.38-16.81-11.93-16.86-19.15-7.18-20.84-8.01-8.06-12.91-8.06-12.91l-4.32,1.08Z"/>
      <path class="cls-7" d="m133.31,28.13c-16.64-8.03-10.16-16.07-7.38-18.64l-.59.12s-14.66,9.15,4.61,19.71c27.67,15.16,16.78,30.36,12.69,36.06.9-.78,9.04-8.34,12.59-11.33.92-5.82-1.42-16.04-21.91-25.93Z"/>
      <path class="cls-7" d="m123.5,113.61c2.82,6.27,4.88,9.06-5.5,14.24,17.09-7.1,14.84-9.68,11.56-16.97-5.37-11.94-28.23-13.99-33.62-20.69-5.39-6.7.77-13.63,4.65-21.76,3.7-7.77,1.35-20.15-13.84-29.95-3.84-3.76,2.67,2.81-2.12,2.51l4.85,2.24s9.7,12.77,2.96,26.89c-3.88,8.14-7.95,16.09-2.56,22.8,5.39,6.7,28.25,8.75,33.62,20.69Z"/>
      <path class="cls-7" d="m115.01-.57s-16.98,4.8-19.54,12.95c-2.2,7.02.83,11.58,12,16.66s25.71,9.24,24.24,23.73c-1.06,10.49-11.42,11.73-13.34,17.84-2.56,8.15-4.04,12.59,19.94,25.26,5.79,3.06-21.42-11.5-13.88-23,3.54-5.39,25.74-15.21,16.3-30.06-7.62-11.99-22.37-14.4-25.47-17.02-3.1-2.63-.27-26.35-.27-26.35Z"/>
      <path class="cls-9" d="m132.7,104.05c-14.83-12.81-30.24-12.18-28.32-23.79,1.55-9.36,10.23-14.22,18.57-17.72,7.88-3.31-12.33,10.34-8.31,15.33.43.54,12.33,19.56,13.04,20.1s5.92,6.86,5.02,6.08Z"/>
    </g>
    <path class="cls-7" d="m113.16,31.41c6.91,3.37,9.37,5.85,10.48,9.39,2.56,8.17-.94,9.72-12.68,22.41.08.27,2.14-.75,3.77-1.77,10-6.29,25.35-16.12,15.05-24.71-5.42-4.52-11.54-5.93-17.04-7.02-10.62-2.1-4.58-.75.44,1.7Z"/>
  </g>
  <g id="Left_Bracket" data-name="Left Bracket">
    <path class="cls-8" d="m9.2,111.69v-27.04c0-6.76-1.9-8.82-9.2-8.82v-13.23c7.3,0,9.2-2.06,9.2-8.82v-27.04c0-11.17,7.15-16.31,16.21-16.31h8.18v13.23h-2.34c-5.11,0-7.74,2.35-7.74,10.43v22.04c0,5.29-1.9,10.87-8.91,12.93v.29c7.01,2.06,8.91,7.64,8.91,12.93v22.04c0,8.08,2.63,10.43,7.74,10.43h2.34v13.23h-8.18c-9.05,0-16.21-5.14-16.21-16.31Z"/>
    <g class="cls-14">
      <path class="cls-10" d="m23.47,56.15v-22.04c0-8.08,2.63-10.43,7.74-10.43h-1.92c-5.11,0-7.74,2.35-7.74,10.43v22.04c0,5.29-1.9,10.87-8.91,12.93v.29c7.01,2.06,8.91,7.64,8.91,12.93v22.04c0,8.08,2.63,10.43,7.74,10.43h1.92c-5.11,0-7.74-2.35-7.74-10.43v-22.04c0-5.29-1.9-10.87-8.91-12.93v-.29c7.01-2.06,8.91-7.64,8.91-12.93Z"/>
      <rect class="cls-10" x="31.62" y="10.44" width="1.92" height="13.23"/>
      <rect class="cls-10" x="31.62" y="114.78" width="1.92" height="13.23"/>
    </g>
    <path class="cls-6" d="m22.54,56.06v-22.04c0-8.08,2.63-10.43,7.74-10.43h2.34v-13.23h-3.17v13.23h-2.34c-5.11,0-7.74,2.35-7.74,10.43v22.04c0,5.29-1.9,10.87-8.91,12.93v.29c7.01,2.06,8.91,7.64,8.91,12.93v22.04c0,8.08,2.63,10.43,7.74,10.43h2.34v13.23h3.17v-13.23h-2.34c-5.11,0-7.74-2.35-7.74-10.43v-22.04c0-5.29-1.9-10.87-8.91-12.93v-.29c7.01-2.06,8.91-7.64,8.91-12.93Z"/>
    <path class="cls-7" d="m21.29,56.06v-22.04c0-8.08,3.21-10.43,9.45-10.43h2.85v-13.23h-3.87v13.23h-2.85c-6.24,0-9.45,2.35-9.45,10.43v22.04c0,5.29-2.32,10.87-10.87,12.93v.29c8.55,2.06,10.87,7.64,10.87,12.93v22.04c0,8.08,3.21,10.43,9.45,10.43h2.85v13.23h3.87v-13.23h-2.85c-6.24,0-9.45-2.35-9.45-10.43v-22.04c0-5.29-2.32-10.87-10.87-12.93v-.29c8.55-2.06,10.87-7.64,10.87-12.93Z"/>
  </g>
  <g id="Right_Bracket" data-name="Right Bracket">
    <path class="cls-8" d="m194.24,128.01h-8.18v-13.23h2.34c5.11,0,7.74-2.35,7.74-10.43v-22.04c0-5.29,1.9-10.87,8.91-12.93v-.29c-7.01-2.06-8.91-7.64-8.91-12.93v-22.04c0-8.08-2.63-10.43-7.74-10.43h-2.34v-13.23h8.18c9.05,0,16.21,5.14,16.21,16.31v27.04c0,6.76,1.9,8.82,9.2,8.82v13.23c-7.3,0-9.2,2.06-9.2,8.82v27.04c0,11.17-7.15,16.31-16.21,16.31Z"/>
    <path class="cls-10" d="m196.18,56.15v-22.04c0-8.08-2.63-10.43-7.74-10.43h1.92c5.11,0,7.74,2.35,7.74,10.43v22.04c0,5.29,1.9,10.87,8.91,12.93v.29c-7.01,2.06-8.91,7.64-8.91,12.93v22.04c0,8.08-2.63,10.43-7.74,10.43h-1.92c5.11,0,7.74-2.35,7.74-10.43v-22.04c0-5.29,1.9-10.87,8.91-12.93v-.29c-7.01-2.06-8.91-7.64-8.91-12.93Z"/>
    <path class="cls-6" d="m197.11,56.06v-22.04c0-8.08-2.63-10.43-7.74-10.43h-2.34v-13.23h3.17v13.23s2.34,0,2.34,0c5.11,0,7.74,2.35,7.74,10.43v22.04c0,5.29,1.9,10.87,8.91,12.93v.29c-7.01,2.06-8.91,7.64-8.91,12.93v22.04c0,8.08-2.63,10.43-7.74,10.43h-2.34s0,13.23,0,13.23h-3.17v-13.23h2.34c5.11,0,7.74-2.35,7.74-10.43v-22.04c0-5.29,1.9-10.87,8.91-12.93v-.29c-7.01-2.06-8.91-7.64-8.91-12.93Z"/>
    <path class="cls-7" d="m198.36,56.06v-22.04c0-8.08-3.21-10.43-9.45-10.43h-2.85v-13.23h3.87v13.23s2.85,0,2.85,0c6.24,0,9.45,2.35,9.45,10.43v22.04c0,5.29,2.32,10.87,10.87,12.93v.29c-8.55,2.06-10.87,7.64-10.87,12.93v22.04c0,8.08-3.21,10.43-9.45,10.43h-2.85s0,13.23,0,13.23h-3.87v-13.23h2.85c6.24,0,9.45-2.35,9.45-10.43v-22.04c0-5.29,2.32-10.87,10.87-12.93v-.29c-8.55-2.06-10.87-7.64-10.87-12.93Z"/>
  </g>
</svg>